# xmcd
#
# Track frame offsets:
#	150
#	21347
#	57747
#	78135
#	138762
#	153392
#	211977
#	218560
#	226475
#	231475
#	237520
#	241882
#	253625
#	257122
#	268012
#	278130
#	285055
#	291472
#
# Disc length: 3960 seconds
#
# Revision: 1
# Processed by: cddbd v1.5.1PL0 Copyright (c) Steve Scherf et al.
# Submitted via: CDex 1.50Beta5
#
DISCID=0a0f7612
DTITLE=川井憲次 - プリンセス・ミネルバ
DYEAR=1900
DGENRE=Anime
TTITLE0=かぁいくて、ゴメンあそばせ
TTITLE1=Act.1「ミネルバ親衛隊出動! いざ、山へ、スキーヘ。」
TTITLE2=われら、ミネルバ親衛隊
TTITLE3=Act.2「お風呂で、ムフフ」
TTITLE4=WAGAMAMA(CDバージョン)
TTITLE5=Act.3「女の喜び…それは!」
TTITLE6=プリンセス・ミネルバのテーマ
TTITLE7=ダイナスターのテーマ
TTITLE8=K2
TTITLE9=決意
TTITLE10=死神、チロリア
TTITLE11=戦い
TTITLE12=親衛隊出動
TTITLE13=死闘
TTITLE14=魔空間
TTITLE15=逆襲のミネルバ
TTITLE16=ブルーモリスの蘇生
TTITLE17=WAGAMAMA(ビデオバージョン)
EXTD=
EXTT0=
EXTT1=
EXTT2=
EXTT3=
EXTT4=
EXTT5=
EXTT6=
EXTT7=
EXTT8=
EXTT9=
EXTT10=
EXTT11=
EXTT12=
EXTT13=
EXTT14=
EXTT15=
EXTT16=
EXTT17=
PLAYORDER=
